<svg xmlns="http://www.w3.org/2000/svg" viewBox="0 0 1200 900" role="img" aria-labelledby="title desc">
  <title id="title">Placeholder for Savanna's bookshelf</title>
  <desc id="desc">A simple illustrated shelf with colorful books.</desc>
  <rect width="1200" height="900" fill="#f5efe2"/>
  <rect x="120" y="140" width="960" height="620" rx="16" fill="#fffaf0" stroke="#24443a" stroke-width="12"/>
  <g fill="#24443a">
    <rect x="190" y="235" width="820" height="22" rx="4"/>
    <rect x="190" y="430" width="820" height="22" rx="4"/>
    <rect x="190" y="625" width="820" height="22" rx="4"/>
  </g>
  <g>
    <rect x="230" y="270" width="48" height="150" rx="5" fill="#b96f4a"/>
    <rect x="292" y="248" width="58" height="172" rx="5" fill="#7f9779"/>
    <rect x="364" y="292" width="42" height="128" rx="5" fill="#24443a"/>
    <rect x="420" y="260" width="62" height="160" rx="5" fill="#d6a75d"/>
    <rect x="496" y="282" width="46" height="138" rx="5" fill="#7b5f8c"/>
    <rect x="556" y="250" width="54" height="170" rx="5" fill="#b85c62"/>
    <rect x="624" y="300" width="42" height="120" rx="5" fill="#618b82"/>
    <rect x="680" y="266" width="62" height="154" rx="5" fill="#c9865b"/>
    <rect x="756" y="278" width="52" height="142" rx="5" fill="#315d52"/>
    <rect x="822" y="252" width="44" height="168" rx="5" fill="#9a7c4f"/>
    <rect x="880" y="290" width="58" height="130" rx="5" fill="#9b5f73"/>
    <rect x="230" y="470" width="58" height="145" rx="5" fill="#618b82"/>
    <rect x="302" y="450" width="42" height="165" rx="5" fill="#d6a75d"/>
    <rect x="358" y="492" width="64" height="123" rx="5" fill="#b85c62"/>
    <rect x="436" y="456" width="46" height="159" rx="5" fill="#24443a"/>
    <rect x="496" y="482" width="56" height="133" rx="5" fill="#b96f4a"/>
    <rect x="566" y="462" width="44" height="153" rx="5" fill="#7f9779"/>
    <rect x="624" y="498" width="62" height="117" rx="5" fill="#7b5f8c"/>
    <rect x="700" y="454" width="52" height="161" rx="5" fill="#c9865b"/>
  </g>
  <text x="600" y="825" text-anchor="middle" fill="#173029" font-family="Segoe UI, Arial, sans-serif" font-size="54" font-weight="700">Savanna's bookshelf</text>
</svg>
